<?xml version="1.0" encoding="UTF-8"?>
<svg version="1.1" xmlns="http://www.w3.org/2000/svg" width="1024" height="455">
<path d="M0 0 C0.95667082 3.03482422 1.0040068 4.95647695 0.1796875 8.01953125 C-0.02309814 8.78676514 -0.22588379 9.55399902 -0.43481445 10.34448242 C-0.66257568 11.15892822 -0.89033691 11.97337402 -1.125 12.8125 C-1.35727295 13.65981689 -1.5895459 14.50713379 -1.82885742 15.38012695 C-2.53644673 17.92500767 -3.26356389 20.46333034 -4 23 C-4.19899902 23.6919043 -4.39799805 24.38380859 -4.60302734 25.09667969 C-10.24041638 44.32324591 -19.22689956 60.38620009 -35 73 C-33.20601733 72.04600922 -31.41488345 71.08665974 -29.625 70.125 C-28.62726563 69.59132813 -27.62953125 69.05765625 -26.6015625 68.5078125 C-23.94651605 67.1179862 -23.94651605 67.1179862 -22 65 C-22 67.64 -22 70.28 -22 73 C-22.66 73 -23.32 73 -24 73 C-24.185625 74.051875 -24.37125 75.10375 -24.5625 76.1875 C-28.45027366 91.52109681 -38.25207716 101.80011342 -51.36499023 109.6394043 C-52.67831178 110.41517733 -53.99216332 111.1900541 -55.30664062 111.96386719 C-57.30488017 113.1865501 -59.15044266 114.56439121 -61 116 C-61.99 116.495 -61.99 116.495 -63 117 C-63.99 116.67 -64.98 116.34 -66 116 C-66.33 116.66 -66.66 117.32 -67 118 C-69.0625 119.125 -69.0625 119.125 -71 120 C-67.62436742 119.04388558 -64.24961166 118.08471099 -60.875 117.125 C-59.92367187 116.85558594 -58.97234375 116.58617187 -57.9921875 116.30859375 C-53.29088592 114.97002872 -48.62012784 113.60226656 -44 112 C-44.6034146 117.81385179 -46.7632233 122.75296729 -49.0625 128.0625 C-49.4651709 128.99481445 -49.8678418 129.92712891 -50.28271484 130.88769531 C-58.45409671 149.39752619 -70.75183778 164.88267474 -85.93359375 178.1875 C-87.33043823 179.41270953 -88.68616727 180.68616727 -90 182 C-91.98387708 183.03161608 -93.98276656 184.03523618 -96 185 C-96 185.66 -96 186.32 -96 187 C-97.65 187 -99.3 187 -101 187 C-100.67 187.99 -100.34 188.98 -100 190 C-100.66 190.33 -101.32 190.66 -102 191 C-102 190.34 -102 189.68 -102 189 C-105.96 190.98 -109.92 192.96 -114 195 C-106.84814138 193.82969586 -100.56716539 191.3119149 -93.94165039 188.47631836 C-92.87805298 188.02204468 -92.87805298 188.02204468 -91.79296875 187.55859375 C-90.84200317 187.14565063 -90.84200317 187.14565063 -89.87182617 186.72436523 C-87.93673283 185.97551667 -86.02112151 185.46154679 -84 185 C-95.98758141 212.04515319 -118.133805 227.52314105 -144.97265625 238.22265625 C-145.97619141 238.60744141 -145.97619141 238.60744141 -147 239 C-145.39566191 238.52140759 -143.79153584 238.04210442 -142.1875 237.5625 C-141.29417969 237.29566406 -140.40085937 237.02882813 -139.48046875 236.75390625 C-137.64526945 236.19612127 -135.81966274 235.60655425 -134 235 C-132.54336945 234.69994502 -131.08484624 234.40899739 -129.625 234.125 C-124.85430944 233.08553246 -121.48237354 231.48237354 -118 228 C-118.93538401 237.94385156 -128.31836003 244.6894537 -135.45703125 250.96484375 C-139.3927491 254.11462716 -143.56650274 256.61891251 -148 259 C-148.68964844 259.37898438 -149.37929688 259.75796875 -150.08984375 260.1484375 C-154.88336374 262.6733411 -159.82529979 264.4188416 -165 266 C-162.69 266.33 -160.38 266.66 -158 267 C-157.67 266.34 -157.34 265.68 -157 265 C-154.69 265.66 -152.38 266.32 -150 267 C-152.97804191 270.35384243 -155.5540958 271.89864681 -159.75 273.4375 C-160.89339844 273.85773438 -162.03679687 274.27796875 -163.21484375 274.7109375 C-167.22552409 276.07680387 -171.25943991 277.33023708 -175.3125 278.5625 C-187.83224664 282.40577791 -195.76187082 287.14845896 -202.35546875 298.8046875 C-210.44682866 314.52614214 -216.60435035 331.05116628 -222.73828125 347.60693359 C-223.88388869 350.68774865 -225.04684461 353.76114547 -226.21875 356.83203125 C-226.8544687 358.51290663 -227.48990921 360.19388727 -228.125 361.875 C-228.40811035 362.61049072 -228.6912207 363.34598145 -228.98291016 364.10375977 C-230.19336546 367.34651385 -230.99946261 369.9945711 -231.34375 373.47265625 C-232.24480043 378.3158023 -234.60012292 381.56027344 -237.375 385.5625 C-238.36484131 387.02019599 -239.35188374 388.47979699 -240.3359375 389.94140625 C-240.80225586 390.62992676 -241.26857422 391.31844727 -241.74902344 392.02783203 C-243.17462982 394.19009357 -243.17462982 394.19009357 -244.6640625 397.46484375 C-246 400 -246 400 -249 401 C-250.3584856 396.9245432 -249.0447128 394.05630515 -247.796875 390.11328125 C-247.55841858 389.33744186 -247.31996216 388.56160248 -247.07427979 387.76225281 C-246.56710351 386.11766492 -246.0557366 384.47436446 -245.54052734 382.83227539 C-244.75924003 380.34195223 -243.98976892 377.84823715 -243.22265625 375.35351562 C-242.72725685 373.75238917 -242.23118385 372.15147094 -241.734375 370.55078125 C-241.39197784 369.44564934 -241.39197784 369.44564934 -241.04266357 368.31819153 C-239.91111648 364.71687929 -238.7068346 361.16847907 -237.36035156 357.64135742 C-235.68387266 353.38385785 -235.68387266 353.38385785 -236 349 C-238.44496043 347.28288757 -238.44496043 347.28288757 -241 346 C-241 345.34 -241 344.68 -241 344 C-241.5465625 343.77570313 -242.093125 343.55140625 -242.65625 343.3203125 C-253.72449025 337.08520383 -261.88557389 324.16526982 -269 314 C-269.62865967 313.10643799 -269.62865967 313.10643799 -270.27001953 312.19482422 C-287.74768011 287.05339043 -297.08440102 256.53323553 -298 226 C-298.05994141 224.71802734 -298.05994141 224.71802734 -298.12109375 223.41015625 C-299.19167664 182.53907996 -282.45392873 142.79985469 -255 113 C-254.52014648 112.47100098 -254.04029297 111.94200195 -253.54589844 111.39697266 C-226.8341812 82.24499048 -188.05348071 65.30913366 -148.8125 63.25 C-142.2130333 62.97843386 -135.6041523 62.86643287 -129 63 C-129 63.66 -129 64.32 -129 65 C-127.02 65 -125.04 65 -123 65 C-122.67 65.99 -122.34 66.98 -122 68 C-121.62230469 67.48953125 -121.24460937 66.9790625 -120.85546875 66.453125 C-111.28250098 53.80873665 -100.29886718 41.75462386 -87 33 C-86.01 32.01 -86.01 32.01 -85 31 C-82.61937732 29.64416774 -80.23526571 28.33825585 -77.8125 27.0625 C-77.16474609 26.71509766 -76.51699219 26.36769531 -75.84960938 26.00976562 C-72.65886469 24.31717279 -69.49392184 22.76899327 -66.13671875 21.43359375 C-62.77229313 20.22846972 -62.77229313 20.22846972 -61 17 C-60.01 17.33 -59.02 17.66 -58 18 C-60.13259754 23.1182341 -62.48550061 28.0577081 -65 33 C-64.61328125 32.39671875 -64.2265625 31.7934375 -63.828125 31.171875 C-61.13071614 27.03228715 -58.49786312 23.49786312 -55 20 C-55 19.01 -55 18.02 -55 17 C-54.2678125 16.73832031 -53.535625 16.47664063 -52.78125 16.20703125 C-49.96162627 14.98334623 -47.92532096 13.56047903 -45.5 11.6875 C-32.5759271 2.51865182 -15.67154706 -0.89646562 0 0 Z M-73 67 C-74.32 68.32 -75.64 69.64 -77 71 C-76.67 71.66 -76.34 72.32 -76 73 C-74.68 71.68 -73.36 70.36 -72 69 C-72.33 68.34 -72.66 67.68 -73 67 Z M-125 69 C-125.66 69.66 -126.32 70.32 -127 71 C-127 71.99 -127 72.98 -127 74 C-129.31 74.33 -131.62 74.66 -134 75 C-134 74.34 -134 73.68 -134 73 C-173.75243024 71.43254382 -208.60767474 84.98237448 -238.75 110.375 C-239.64561646 111.12487183 -239.64561646 111.12487183 -240.55932617 111.88989258 C-243.40370249 114.34540066 -245.67942582 116.42767755 -247 120 C-247.66 120 -248.32 120 -249 120 C-275.57619747 147.54989436 -288.50734051 187.23447188 -288.30029297 224.97509766 C-287.33652531 265.35783064 -270.70742921 304.50933368 -241.44335938 332.48828125 C-238.34598443 335.38323835 -235.19192323 338.2093824 -232 341 C-228.99898723 337.51732943 -227.54876558 333.637786 -226.00390625 329.375 C-225.7290892 328.6322583 -225.45427216 327.8895166 -225.17112732 327.12426758 C-224.59071 325.55192623 -224.0134727 323.97840783 -223.43920898 322.40380859 C-222.57477491 320.03365601 -221.70144213 317.66695073 -220.82617188 315.30078125 C-219.19387372 310.87554961 -217.59085524 306.44027569 -216 302 C-215.36457275 300.23825439 -215.36457275 300.23825439 -214.71630859 298.44091797 C-211.19079064 288.34533089 -210.59360389 279.71751682 -214 269.4375 C-215.94942496 263.297852 -216.4148474 257.6839033 -216.4375 251.25 C-216.44716797 250.38689209 -216.45683594 249.52378418 -216.46679688 248.63452148 C-216.39476599 243.08867325 -215.43902596 238.36628061 -213.64086914 233.12011719 C-212.85532521 230.89053178 -212.85532521 230.89053178 -213 228 C-212.34 228 -211.68 228 -211 228 C-210.95101562 228.61746094 -210.90203125 229.23492187 -210.8515625 229.87109375 C-210.33391578 235.73478159 -209.38417877 241.27872775 -208 247 C-207.67 247 -207.34 247 -207 247 C-206.98541748 245.92218262 -206.97083496 244.84436523 -206.95581055 243.73388672 C-206.89705748 239.66684692 -206.81984333 235.60031722 -206.73754883 231.53369141 C-206.70465639 229.7863809 -206.67651836 228.03897323 -206.65356445 226.29150391 C-206.50755829 215.4621955 -205.78686408 205.51903667 -203 195 C-202.82243164 194.27498291 -202.64486328 193.54996582 -202.46191406 192.80297852 C-200.24937766 184.16683616 -196.64625579 175.92526409 -192.875 167.875 C-192.53847412 167.1528833 -192.20194824 166.4307666 -191.85522461 165.68676758 C-190.12155778 162.05536315 -188.46284998 159.28379997 -186 156 C-186 164.58 -186 173.16 -186 182 C-185.67 182 -185.34 182 -185 182 C-184.82984375 180.73027344 -184.6596875 179.46054688 -184.484375 178.15234375 C-180.37649835 148.48466761 -168.94448618 125.63885097 -151.6171875 101.4765625 C-149.81774963 99.21387042 -149.81774963 99.21387042 -150 97 C-149.01 96.67 -148.02 96.34 -147 96 C-145.46960869 94.31110643 -145.46960869 94.31110643 -144.0625 92.25 C-142.30335655 89.8021146 -140.54759141 87.45234749 -138.625 85.125 C-136.79751663 83.18106686 -136.79751663 83.18106686 -137 81 C-136.01 81 -135.02 81 -134 81 C-134.66 81.99 -135.32 82.98 -136 84 C-137.59712113 89.63921781 -138.25394467 95.15927257 -138 101 C-136.36607031 98.54910547 -135.45537213 96.78976153 -134.484375 94.0859375 C-134.20537354 93.32861328 -133.92637207 92.57128906 -133.63891602 91.79101562 C-133.34557373 90.99373047 -133.05223145 90.19644531 -132.75 89.375 C-130.44836987 83.24706973 -128.05807347 77.78399224 -124.06640625 72.53125 C-122.80950208 71.03746421 -122.80950208 71.03746421 -123 69 C-123.66 69 -124.32 69 -125 69 Z M-79 73 C-80.98 75.97 -80.98 75.97 -83 79 C-82.01 78.67 -81.02 78.34 -80 78 C-80 77.34 -80 76.68 -80 76 C-79.01 75.67 -78.02 75.34 -77 75 C-77.66 74.34 -78.32 73.68 -79 73 Z M-84 79 C-84.825 79.94875 -85.65 80.8975 -86.5 81.875 C-86.9640625 82.40867187 -87.428125 82.94234375 -87.90625 83.4921875 C-89.19572458 84.95936421 -89.19572458 84.95936421 -89 87 C-89.5775 87.20625 -90.155 87.4125 -90.75 87.625 C-94.66850794 90.01964374 -96.57583774 93.72751322 -98 98 C-98.66 98 -99.32 98 -100 98 C-101.50871963 99.73212031 -102.92919907 101.54116407 -104.3125 103.375 C-104.74401367 103.94573242 -105.17552734 104.51646484 -105.62011719 105.10449219 C-113.22495921 115.22102515 -120.71226883 125.44510691 -127.67529297 136.01538086 C-128.5153508 137.27391939 -129.37437822 138.52016345 -130.25830078 139.74829102 C-132.51904686 142.91501601 -133 143.92425001 -133 148 C-132.01 148.33 -131.02 148.66 -130 149 C-129.52691406 148.21238281 -129.05382812 147.42476563 -128.56640625 146.61328125 C-123.07124617 137.56179925 -117.16401529 128.89137233 -111.05078125 120.2421875 C-107.9668665 115.86717612 -104.9812364 111.48490901 -102.23828125 106.88671875 C-100.64213278 104.45473227 -98.83961104 102.25448835 -97 100 C-94.97544823 97.50299388 -92.95621752 95.00172356 -90.9375 92.5 C-90.40833984 91.84902344 -89.87917969 91.19804688 -89.33398438 90.52734375 C-86.6087754 87.14220336 -84.11874134 83.81226816 -82 80 C-82.66 79.67 -83.32 79.34 -84 79 Z M-139 101 C-138 105 -138 105 -138 105 Z M-135 146 C-134 148 -134 148 -134 148 Z M-136 148 C-136.46148437 148.7528125 -136.92296875 149.505625 -137.3984375 150.28125 C-138.05070312 151.3434375 -138.70296875 152.405625 -139.375 153.5 C-139.73368164 154.08458984 -140.09236328 154.66917969 -140.46191406 155.27148438 C-142.3998018 158.42325038 -144.35180842 161.56461011 -146.3359375 164.6875 C-151.17459761 172.31666828 -155.8207122 180.0358997 -160.3125 187.875 C-160.80395508 188.73029297 -161.29541016 189.58558594 -161.80175781 190.46679688 C-164.55469485 195.30642651 -167.12682135 200.19898979 -169.58520508 205.19384766 C-171.27589174 208.54721306 -173.05456446 211.8505945 -174.8359375 215.15625 C-178.62228661 222.20748533 -182.20147581 229.34595811 -185.68261719 236.55224609 C-186.62626042 238.50260508 -187.57853472 240.44859078 -188.53125 242.39453125 C-192.77258438 251.1164432 -196.4858359 259.96357804 -200 269 C-200.71434924 270.76688096 -201.43138551 272.53268046 -202.15234375 274.296875 C-202.7478121 275.78108306 -203.34288224 277.26545096 -203.9375 278.75 C-204.25267578 279.51570312 -204.56785156 280.28140625 -204.89257812 281.0703125 C-206.76475461 285.44409745 -206.76475461 285.44409745 -206 290 C-196.59790165 273.12550337 -196.59790165 273.12550337 -188.3125 255.6875 C-185.16551527 248.4717658 -181.73447287 241.50223893 -178.01098633 234.56738281 C-174.36503573 227.75937714 -170.92518504 220.85878074 -167.5 213.9375 C-157.24830195 193.31792891 -146.05646317 173.00067478 -133.01171875 153.99609375 C-132.67785156 153.33738281 -132.34398437 152.67867187 -132 152 C-132.495 150.515 -132.495 150.515 -133 149 C-133.99 148.67 -134.98 148.34 -136 148 Z M-185 189 C-184 191 -184 191 -184 191 Z M-207 248 C-206 250 -206 250 -206 250 Z " fill="#070707" transform="translate(406,27)"/>
<path d="M0 0 C3.33094173 2.63699554 4.61613879 4.16250042 5.4765625 8.28125 C6.94722161 33.97908288 -14.29456236 63.26312265 -30 82 C-30.65718018 82.78818115 -30.65718018 82.78818115 -31.32763672 83.59228516 C-44.80949164 99.71450335 -44.80949164 99.71450335 -50 104 C-50.66 104 -51.32 104 -52 104 C-54.11304758 110.97946019 -55.71791453 118.04988901 -57.1875 125.1875 C-57.36635742 126.03022461 -57.54521484 126.87294922 -57.72949219 127.74121094 C-59.17297454 134.91360179 -59.71695759 141.78877814 -58 149 C-56.11713569 151.33423533 -56.11713569 151.33423533 -53 151.125 C-42.3995551 149.193656 -33.08904674 136.55841672 -27.09765625 128.4140625 C-23.16370087 122.47298703 -20.09376144 116.19401759 -16.99316406 109.7980957 C-14.32778691 104.40688284 -11.349176 99.2316307 -7 95 C-6.34 95 -5.68 95 -5 95 C-4.67 94.01 -4.34 93.02 -4 92 C5.22561452 83.97701023 15.08421066 78.65005831 27.39453125 78.77734375 C31.96414758 79.16785069 36.18266692 80.438165 39.72265625 83.48046875 C41 85 41 85 41 87 C41.51949219 86.50628906 42.03898437 86.01257813 42.57421875 85.50390625 C43.27160156 84.86324219 43.96898437 84.22257812 44.6875 83.5625 C45.37199219 82.92441406 46.05648438 82.28632813 46.76171875 81.62890625 C49.26529446 79.8069323 50.93472111 79.27866172 54 79 C56.8125 79.9375 56.8125 79.9375 59 81 C58.39660905 85.69607233 57.09044495 89.62493766 55.26953125 93.98828125 C54.99825912 94.64480682 54.726987 95.3013324 54.44749451 95.97775269 C53.8707555 97.37310793 53.29147634 98.76741559 52.70983887 100.16073608 C51.20900536 103.75964336 49.73052226 107.36766372 48.25390625 110.9765625 C47.96635468 111.67897568 47.6788031 112.38138885 47.38253784 113.10508728 C40.4271236 129.19972675 40.4271236 129.19972675 37.9375 146.3125 C37.95103516 147.63701172 37.95103516 147.63701172 37.96484375 148.98828125 C37.97644531 149.65214844 37.98804688 150.31601562 38 151 C47.86862132 150.07169264 54.43816093 140.89471703 60.6953125 133.8359375 C63.89645103 129.89690941 66.80725709 125.76942671 69.63867188 121.55786133 C72.68678849 117.10440384 72.68678849 117.10440384 76 116 C76 116.66 76 117.32 76 118 C76.66 118 77.32 118 78 118 C77.50263811 123.07114086 75.03292632 126.43956834 72.1875 130.5 C71.70047607 131.1997998 71.21345215 131.89959961 70.71166992 132.62060547 C62.63888605 143.96495736 52.69638775 156.59758965 39 161 C34.59335423 161.70821093 31.12036611 161.35162876 27.125 159.3125 C23.89906894 156.92531102 22.88661982 155.84201922 22 152 C22 151.01 22 150.02 22 149 C21.34 148.67 20.68 148.34 20 148 C20.33 145.03 20.66 142.06 21 139 C20.47792969 139.68964844 19.95585938 140.37929688 19.41796875 141.08984375 C13.19970051 149.02875364 5.95931571 157.89945832 -4 161 C-9.83597652 161.70214092 -14.12634325 161.4811834 -19 158 C-21.69254991 157.29329272 -21.69254991 157.29329272 -24 157 C-23.34 156.34 -22.68 155.68 -22 155 C-22.45375 154.195625 -22.9075 153.39125 -23.375 152.5625 C-25.2585056 148.43327617 -26.16165904 144.43827566 -27 140 C-27.680625 140.99 -27.680625 140.99 -28.375 142 C-28.91125 142.66 -29.4475 143.32 -30 144 C-30.66 144 -31.32 144 -32 144 C-32.21398437 144.55558594 -32.42796875 145.11117187 -32.6484375 145.68359375 C-36.07785414 151.56117775 -43.9251161 157.49513121 -50.125 160.125 C-56.21102209 161.49926305 -62.10916628 162.30189705 -67.875 159.4375 C-73.4377757 155.09853495 -74.96043947 150.97907824 -76.10546875 144.25390625 C-76.36106567 142.77579468 -76.36106567 142.77579468 -76.62182617 141.26782227 C-76.74662354 140.51944092 -76.8714209 139.77105957 -77 139 C-77.4626123 139.48879639 -77.92522461 139.97759277 -78.40185547 140.48120117 C-80.54574375 142.73028646 -82.71001042 144.95872706 -84.875 147.1875 C-85.60203125 147.95642578 -86.3290625 148.72535156 -87.078125 149.51757812 C-93.18400373 155.7573577 -99.77862474 160.89911264 -108.75 161.625 C-113.42146931 161.32787474 -115.83919857 159.46183014 -119 156 C-123.020519 150.5052907 -122.28452068 144.51236217 -122 138 C-122.33773438 138.5775 -122.67546875 139.155 -123.0234375 139.75 C-123.46945312 140.4925 -123.91546875 141.235 -124.375 142 C-124.81585937 142.7425 -125.25671875 143.485 -125.7109375 144.25 C-126.13632812 144.8275 -126.56171875 145.405 -127 146 C-127.66 146 -128.32 146 -129 146 C-129.2475 146.61875 -129.495 147.2375 -129.75 147.875 C-131.20628639 150.35068687 -132.37812506 150.95125002 -135 152 C-135 152.66 -135 153.32 -135 154 C-136.86328125 155.47265625 -136.86328125 155.47265625 -139.3125 157.0625 C-140.11300781 157.58972656 -140.91351562 158.11695313 -141.73828125 158.66015625 C-146.66452285 161.57846518 -151.43712301 161.43459976 -157 161 C-160.6909422 160.02503413 -162.31274134 159.02528533 -164.4375 155.85546875 C-167.29301487 150.57438869 -168.66800226 145.97595924 -169 140 C-169.53367187 140.70125 -170.06734375 141.4025 -170.6171875 142.125 C-176.97559057 150.22151325 -184.60094731 159.85527967 -195.46484375 161.3359375 C-201.12291901 161.42532258 -204.70899048 161.08169198 -209 157 C-213.03032295 150.01410689 -212.59004868 143.36792902 -210.62695312 135.85351562 C-210.44068359 135.17998047 -210.25441406 134.50644531 -210.0625 133.8125 C-208.36462013 127.44547628 -208.36462013 127.44547628 -207 121 C-208.4800841 121.11362262 -209.95910074 121.24122908 -211.4375 121.375 C-212.26121094 121.44460938 -213.08492187 121.51421875 -213.93359375 121.5859375 C-214.95646484 121.79089844 -214.95646484 121.79089844 -216 122 C-216.33 122.66 -216.66 123.32 -217 124 C-217 123.01 -217 122.02 -217 121 C-218.0725 120.87625 -219.145 120.7525 -220.25 120.625 C-223.37863615 120.10356064 -225.33480424 119.59911746 -228 118 C-228.27714844 118.72058594 -228.55429687 119.44117188 -228.83984375 120.18359375 C-234.98173404 135.09370453 -246.66585749 153.27742303 -262 160 C-268.86197053 162.33555021 -274.35571241 162.55911399 -280.96484375 159.375 C-283.37836193 157.74436967 -284.74134159 156.09382561 -285.6171875 153.28125 C-286.46657219 148.21961061 -286.77662046 143.12232385 -287 138 C-287.4125 138.56847656 -287.825 139.13695312 -288.25 139.72265625 C-294.76304641 148.43094821 -303.41211781 157.47070594 -314 161 C-318.62828525 161.53776267 -322.10802307 161.41295228 -326.375 159.4375 C-330.5369924 155.57279277 -331.8636704 152.42060778 -332.17578125 146.87890625 C-332.1862641 143.9122606 -332.13138531 140.96346872 -332 138 C-332.38929688 138.53367187 -332.77859375 139.06734375 -333.1796875 139.6171875 C-348.24500744 159.68113894 -348.24500744 159.68113894 -359.4375 161.3671875 C-365.32448202 161.67230547 -370.30379405 160.69608802 -375 157 C-378.61155429 152.65753591 -381.07357002 146.60450338 -380.95800781 140.94262695 C-380.70439502 138.70874642 -380.35119128 136.52232061 -379.9375 134.3125 C-379.79393066 133.5194043 -379.65036133 132.72630859 -379.50244141 131.90917969 C-376.01693198 113.96809355 -364.86048219 95.45032876 -349.625 85.0625 C-341.39589624 80.1915124 -331.607542 77.65919192 -322 78 C-319 80 -319 80 -316 82.5625 C-313.20212723 85.12862642 -313.20212723 85.12862642 -310 86 C-309.690625 85.1028125 -309.690625 85.1028125 -309.375 84.1875 C-307.38519328 81.02189839 -305.51606076 80.19413384 -302 79 C-298.125 79.8125 -298.125 79.8125 -295 81 C-295.47293622 88.1248869 -298.35888343 94.17466895 -301.125 100.6875 C-304.67202521 109.20278601 -308.10661563 117.71927139 -311.125 126.4375 C-311.40746582 127.2524292 -311.68993164 128.0673584 -311.98095703 128.90698242 C-313.90551344 134.54698511 -315.12795999 139.22768116 -315.0625 145.25 C-315.05347656 146.32765625 -315.04445313 147.4053125 -315.03515625 148.515625 C-315.02355469 149.33546875 -315.01195312 150.1553125 -315 151 C-311.14690995 150.47608586 -309.12447881 149.61045963 -306.3125 146.9375 C-303.19529412 144 -303.19529412 144 -301 144 C-300.76539063 143.44183594 -300.53078125 142.88367188 -300.2890625 142.30859375 C-298.68606075 139.43776335 -296.66604632 137.42093003 -294.375 135.0625 C-284.23466088 124.07606892 -279.04506335 111.73032803 -273.85571289 97.91235352 C-267.9316232 82.17126258 -267.9316232 82.17126258 -264.03515625 79.80859375 C-259.74259951 79.00108308 -256.96064831 78.71962673 -253 81 C-252.67 81.33 -252.34 81.66 -252 82 C-252.04848098 88.25636777 -253.72776146 93.7444647 -256.0546875 99.48046875 C-256.35690216 100.25578445 -256.65911682 101.03110016 -256.9704895 101.82991028 C-257.92843494 104.28660666 -258.89987475 106.73757654 -259.875 109.1875 C-268.07558545 128.93988955 -268.07558545 128.93988955 -270 150 C-269.67 150.66 -269.34 151.32 -269 152 C-260.32029751 151.17336167 -255.86821892 146.2608723 -250.3671875 139.97265625 C-246.50186999 135.11868492 -243.21437822 129.97317971 -240.02246094 124.65917969 C-239.0986962 123.16015744 -238.10382619 121.70552672 -237.1015625 120.2578125 C-232.93516744 113.82239478 -232.61692237 108.77848046 -232.89526367 101.35522461 C-233.17053939 93.60321717 -232.01936371 86.67812675 -228.25 79.8125 C-225.17394834 77.3345695 -222.91237685 77.06986387 -219 77 C-216.625 77.5 -216.625 77.5 -215 79 C-213.13439522 85.62245488 -215.18289881 90.42194458 -217.5625 96.6875 C-218.26514201 98.54038356 -218.95457988 100.39834353 -219.62890625 102.26171875 C-219.93900635 103.07600342 -220.24910645 103.89028809 -220.56860352 104.72924805 C-221.1059493 107.55768786 -220.58142259 108.64191962 -219 111 C-215.75824669 113.31553808 -212.90112977 113.45895644 -209 113 C-204.79733254 111.43872868 -202.76059963 110.29477693 -200.46801758 106.39208984 C-198.98092551 103.12791634 -197.62348265 99.83876158 -196.3125 96.5 C-195.40054231 94.23609382 -194.48027124 91.97551458 -193.55078125 89.71875 C-193.15544189 88.71779297 -192.76010254 87.71683594 -192.3527832 86.68554688 C-190.91093483 83.82318772 -189.44030822 82.0611524 -187 80 C-184.74609375 79.50390625 -184.74609375 79.50390625 -182.4375 79.5625 C-181.67308594 79.56378906 -180.90867187 79.56507813 -180.12109375 79.56640625 C-178 80 -178 80 -176.16015625 81.02734375 C-174.21264903 84.33876174 -175.08424145 87.46307508 -176 91 C-177.34648767 94.74598842 -178.94761836 98.36309116 -180.5625 102 C-184.20974939 110.51002824 -187.61827058 119.05409682 -190.625 127.8125 C-190.96732666 128.77091797 -191.30965332 129.72933594 -191.66235352 130.71679688 C-193.86283887 137.28336092 -194.40708906 143.09372566 -194 150 C-190.47141474 149.36091344 -188.09445902 148.69680325 -185.1875 146.5625 C-184.58292969 146.13066406 -183.97835937 145.69882812 -183.35546875 145.25390625 C-182.90816406 144.84011719 -182.46085938 144.42632812 -182 144 C-182 143.34 -182 142.68 -182 142 C-181.44828125 141.80535156 -180.8965625 141.61070312 -180.328125 141.41015625 C-177.00130094 139.39508328 -175.00158056 136.53426135 -172.75 133.4375 C-172.26619873 132.77782227 -171.78239746 132.11814453 -171.28393555 131.43847656 C-167.85899992 126.60287326 -165.21765869 121.65584583 -162.8125 116.25 C-159.64294049 109.12608334 -156.0751265 102.98676959 -151 97 C-150.26265625 96.12730469 -149.5253125 95.25460937 -148.765625 94.35546875 C-141.58978919 86.53474573 -131.53368936 79.74330293 -120.66796875 78.796875 C-113.4806687 78.66105201 -108.54015456 79.67602881 -103.0625 84.6875 C-102.381875 85.450625 -101.70125 86.21375 -101 87 C-99.9171875 85.576875 -99.9171875 85.576875 -98.8125 84.125 C-95.51299697 80.16373224 -91.93328014 79.09628448 -87 78 C-87 78.66 -87 79.32 -87 80 C-86.34 80 -85.68 80 -85 80 C-83.97333207 82.65778956 -83.94966659 83.84540869 -84.84521484 86.59594727 C-85.52124756 88.06632446 -85.52124756 88.06632446 -86.2109375 89.56640625 C-86.71004639 90.67894775 -87.20915527 91.79148926 -87.72338867 92.93774414 C-88.26842041 94.13391357 -88.81345215 95.33008301 -89.375 96.5625 C-93.75870115 106.42740749 -97.74375022 116.32384002 -101.1875 126.5625 C-101.56116699 127.64797119 -101.93483398 128.73344238 -102.31982422 129.85180664 C-104.53147952 136.58322615 -105.69536653 142.91968604 -106 150 C-102.78951061 150.57624169 -100.66720606 150.39524707 -97.84375 148.72265625 C-92.52448073 144.70587929 -88.17683095 140.1681065 -84 135 C-83.06800781 133.91525391 -83.06800781 133.91525391 -82.1171875 132.80859375 C-76.54184034 126.10184769 -74.68869734 119.87210563 -72.68359375 111.51953125 C-71.03128634 104.90475697 -68.98625341 98.45982297 -66.8125 92 C-66.41522705 90.81937988 -66.0179541 89.63875977 -65.60864258 88.42236328 C-41.08036737 16.34704512 -41.08036737 16.34704512 -13.875 1.3125 C-8.61878956 -1.05583102 -5.48889235 -1.92592714 0 0 Z M-5 8 C-12.32940209 12.33481781 -15.77197297 18.82495977 -20 26 C-20.39735352 26.66837891 -20.79470703 27.33675781 -21.20410156 28.02539062 C-31.67080998 45.78246979 -40.08394422 64.60130695 -47 84 C-47.40089844 84.90363281 -47.80179688 85.80726563 -48.21484375 86.73828125 C-49.29902691 89.11935319 -49.29902691 89.11935319 -48 92 C-29.88284633 75.06439983 -3.97597741 41.57961433 -2.90234375 15.640625 C-2.91394531 14.85171875 -2.92554688 14.0628125 -2.9375 13.25 C-2.94652344 12.45078125 -2.95554687 11.6515625 -2.96484375 10.828125 C-2.97644531 10.22484375 -2.98804688 9.6215625 -3 9 C-3.66 8.67 -4.32 8.34 -5 8 Z M12.98046875 93.91796875 C5.98490916 101.27227498 0.64088206 110.55961016 -3 120 C-3.33 120.83917969 -3.66 121.67835938 -4 122.54296875 C-9.32588864 136.27652183 -9.32588864 136.27652183 -8 150.4375 C-7.67 150.953125 -7.34 151.46875 -7 152 C-1.13998008 151.706999 2.85546646 148.96570849 7 145 C7 144.34 7 143.68 7 143 C7.60054199 142.73695068 8.20108398 142.47390137 8.81982422 142.20288086 C12.50262547 140.17094785 14.612258 136.86914856 17.125 133.5625 C17.97735229 132.44415771 17.97735229 132.44415771 18.84692383 131.30322266 C27.4530061 119.67976765 37.25052363 105.00628351 36 90 C35.08333333 87.91666667 35.08333333 87.91666667 33 87 C24.46349465 84.7017101 19.06419374 88.32847287 12.98046875 93.91796875 Z M-340.96484375 93.88671875 C-352.94689989 106.32873866 -362.42533842 126.25122167 -363.15625 143.73828125 C-363.146886 147.01012816 -363.146886 147.01012816 -362 150 C-361.34 150 -360.68 150 -360 150 C-360 150.66 -360 151.32 -360 152 C-353.51496728 151.83371711 -349.53449465 148.24968341 -345 144 C-341.79259445 140.48098721 -338.86675427 136.79975247 -336 133 C-335.31164062 132.09121094 -334.62328125 131.18242187 -333.9140625 130.24609375 C-330.91036361 126.13286527 -328.7244448 123.12544698 -328 118 C-327.34 118 -326.68 118 -326 118 C-318.48248524 104.58317438 -318.48248524 104.58317438 -318 90 C-319.73284031 87.20820173 -321.03135649 86.99155787 -324.25 86.125 C-331.3871486 85.88709505 -335.92055197 89.19232005 -340.96484375 93.88671875 Z M-129.4375 92.625 C-142.12321155 106.30871334 -151.2423512 126.28837062 -152 145 C-151.72120454 147.34047616 -151.40125907 149.67738365 -151 152 C-143.21225712 151.52319942 -138.83825132 148.2056332 -133.6875 142.5 C-132.44324785 141.01248957 -131.21591781 139.5107596 -130 138 C-129.20207031 137.01515625 -128.40414062 136.0303125 -127.58203125 135.015625 C-118.07038224 123.08256534 -108.80788723 109.53040473 -107 94 C-107.79792261 90.88084799 -108.58545315 89.3878019 -110.9375 87.1875 C-117.05917955 83.66289662 -124.86781983 88.42868624 -129.4375 92.625 Z M-50 92 C-49 94 -49 94 -49 94 Z " fill="#0A0A0A" transform="translate(848,174)"/>
<path d="M0 0 C0 0.66 0 1.32 0 2 C1.175625 2.37125 1.175625 2.37125 2.375 2.75 C5 4 5 4 6.3125 5.875 C7 8 7 8 7 12 C3.87709365 11.51421457 1.00419641 11.0013988 -2 10 C-10.95736447 8.78622334 -17.55593148 11.03728765 -25 16 C-29.28656426 19.36454855 -33.13791258 23.16473263 -37 27 C-37.804375 27.76699219 -38.60875 28.53398437 -39.4375 29.32421875 C-45.13066342 34.82958685 -50.07430856 40.80928347 -55 47 C-55.92455214 48.1351168 -56.85038959 49.26918763 -57.77734375 50.40234375 C-65.0982737 59.39298081 -71.94716692 68.67737693 -78.65649414 78.1315918 C-80 80 -80 80 -81.68212891 81.7578125 C-83.60665112 85.03213855 -83.13879716 88.03042003 -82.80078125 91.67578125 C-82.74336258 92.42483231 -82.68594391 93.17388336 -82.62678528 93.94563293 C-82.43868298 96.29943861 -82.2237533 98.64933329 -82 101 C-81.93294861 101.72185486 -81.86589722 102.44370972 -81.79681396 103.18743896 C-81.32210345 108.19482287 -80.76981825 113.19159999 -80.1875 118.1875 C-80.10040771 118.94159149 -80.01331543 119.69568298 -79.92358398 120.47262573 C-78.83000358 129.87079919 -77.64081581 139.24144528 -76 148.5625 C-75.85844482 149.39225342 -75.71688965 150.22200684 -75.57104492 151.0769043 C-74.13789721 158.67407758 -71.88908678 166.69365136 -66.5625 172.5 C-66.00691406 173.1290625 -65.45132813 173.758125 -64.87890625 174.40625 C-59.56938832 178.90995752 -53.58006111 178.33669903 -47 178 C-44.99079847 177.72756589 -42.98179275 177.42849573 -41 177 C-41 180 -41 180 -43 182.5 C-50.04300916 188.3691743 -57.15538062 188.70525723 -66 188 C-69.07766933 187.49211945 -71.98060534 186.80517191 -75 186 C-75 185.34 -75 184.68 -75 184 C-75.74378906 183.74992188 -76.48757813 183.49984375 -77.25390625 183.2421875 C-85.80230528 179.37534412 -90.77994298 169.34901011 -94 161 C-99.13977119 144.28675803 -101.19660521 126.34173573 -103 109 C-103.66 109 -104.32 109 -105 109 C-106.44248467 110.77463396 -106.44248467 110.77463396 -107.9375 113.125 C-114.58685452 122.88475944 -121.95136483 132.07078988 -129.9453125 140.76171875 C-131.88102603 142.87039527 -133.75819976 145.01786328 -135.625 147.1875 C-146.75257595 159.89021227 -161.5240508 174.73048923 -179.20703125 176.28125 C-186.09251269 176.47010892 -192.16878447 176.57443164 -197.45703125 171.640625 C-201.99087139 166.57108617 -203.47632134 162.01536851 -203.3203125 155.3515625 C-202.7947551 151.49320207 -201.39253213 148.07927747 -199 145 C-196.859375 143.77734375 -196.859375 143.77734375 -195 143 C-195.061875 144.134375 -195.12375 145.26875 -195.1875 146.4375 C-195.17704376 152.32436219 -193.6954496 157.63848091 -190.25 162.4375 C-186.66053652 164.93018297 -183.32781801 166.16874517 -178.8984375 165.84765625 C-156.14221832 161.62609616 -139.63018876 139.08068955 -126.36767578 121.77490234 C-124.52417659 119.38249979 -122.65109544 117.01428338 -120.77246094 114.64941406 C-119.84210582 113.46810362 -118.92208434 112.27857988 -118.01269531 111.08105469 C-115.87462689 108.2753251 -113.82126405 105.83188203 -111.23828125 103.40234375 C-106.46292965 98.55386273 -104.75886324 95.14231335 -104.75 88.40625 C-105.0300235 82.55473988 -105.71508108 76.76786204 -106.48242188 70.96240234 C-107.03036138 66.76756358 -107.49792438 62.56889158 -107.953125 58.36328125 C-109.24794777 35.39301859 -109.24794777 35.39301859 -118 15 C-118 14.34 -118 13.68 -118 13 C-124.75761028 10.50262229 -130.75768506 10.45325582 -137.58203125 12.94140625 C-148.65049421 18.09308717 -156.84625615 26.6618071 -161.875 37.8125 C-165.40508603 47.81441043 -165.31605503 59.23938014 -161 69 C-160.01 69.99 -160.01 69.99 -159 71 C-158.375 73.125 -158.375 73.125 -158 75 C-160.625 75.9375 -160.625 75.9375 -164 76 C-169.39196877 71.87520854 -172.14431373 65.57832442 -173.6875 59.125 C-175.0651399 45.34860099 -172.17133676 33.33494768 -164 22 C-155.50574657 11.72676142 -142.42599682 2.37959313 -128.89306641 0.74560547 C-119.20512338 0.06503867 -111.14910027 0.60159382 -102.875 6.0625 C-90.50716673 17.42208599 -89.25426387 36.21414006 -87.25 51.875 C-87.02830033 53.54570013 -86.80564947 55.21627433 -86.58203125 56.88671875 C-86.04374946 60.92311649 -85.51823303 64.96098136 -85 69 C-84.3412085 68.14277344 -83.68241699 67.28554687 -83.00366211 66.40234375 C-73.25320928 53.71816431 -63.50730953 41.07198904 -53 29 C-52.32735107 28.22245361 -52.32735107 28.22245361 -51.64111328 27.42919922 C-37.17344172 10.80466197 -23.00713243 -0.62274945 0 0 Z " fill="#0A0A0A" transform="translate(523,174)"/>
<path d="M0 0 C0.73347656 0.24234375 1.46695313 0.4846875 2.22265625 0.734375 C2.22265625 7.45561272 -2.82429535 10.77840288 -7.38671875 15.34765625 C-19.32773958 26.7561721 -32.8286558 34.85285145 -47.77734375 41.734375 C-48.793125 42.20617187 -49.80890625 42.67796875 -50.85546875 43.1640625 C-87.59076592 59.32357847 -131.19767275 59.16725842 -168.42333984 44.71826172 C-174.469258 42.19129115 -180.13094129 39.04975659 -185.77734375 35.734375 C-186.4130127 35.39204834 -187.04868164 35.04972168 -187.70361328 34.69702148 C-192.65704195 32.00839576 -192.65704195 32.00839576 -193.90234375 29.171875 C-193.77734375 26.734375 -193.77734375 26.734375 -192.58984375 24.859375 C-190.77734375 23.734375 -190.77734375 23.734375 -188.96557617 24.01855469 C-186.48741173 24.82921832 -184.27841528 25.88155698 -181.953125 27.0625 C-161.30923234 37.36493415 -140.99119319 43.75098985 -117.77734375 44.734375 C-116.63910156 44.78722656 -115.50085938 44.84007812 -114.328125 44.89453125 C-73.8076344 45.85236402 -36.47165799 31.35625129 -7.21484375 3.484375 C-6.47105469 2.73671875 -5.72726562 1.9890625 -4.9609375 1.21875 C-2.77734375 -0.265625 -2.77734375 -0.265625 0 0 Z " fill="#0D0D0D" transform="translate(378.77734375,356.265625)"/>
<path d="M0 0 C2.03507508 3.05261261 2.00619465 4.82654967 1.875 8.5 C0.59268898 13.62924409 -1.65534364 16.10356243 -6 19 C-8.6875 19.125 -8.6875 19.125 -11 19 C-11.33 19.66 -11.66 20.32 -12 21 C-12 20.34 -12 19.68 -12 19 C-12.598125 18.87625 -13.19625 18.7525 -13.8125 18.625 C-16 18 -16 18 -19 16 C-20.30622688 11.64591039 -20.20897481 8.79680845 -18.3125 4.75 C-16.06177969 0.76499179 -13.99991891 -1.24327393 -9.6875 -2.875 C-5.77953929 -3.05676561 -3.37520169 -1.91049152 0 0 Z " fill="#0B0B0B" transform="translate(683,226)"/>
<path d="M0 0 C0.66 0.33 1.32 0.66 2 1 C1.2589502 1.69561035 1.2589502 1.69561035 0.50292969 2.40527344 C-1.74867189 4.51951781 -3.99934389 6.63474921 -6.25 8.75 C-7.02730469 9.47960937 -7.80460938 10.20921875 -8.60546875 10.9609375 C-9.73662109 12.02441406 -9.73662109 12.02441406 -10.890625 13.109375 C-11.58188477 13.75874023 -12.27314453 14.40810547 -12.98535156 15.07714844 C-15.02210709 17.02109978 -17.01695974 19.00140648 -19 21 C-19.66 20.67 -20.32 20.34 -21 20 C-18.44169924 17.4124795 -15.87762584 14.83075324 -13.3125 12.25 C-12.59126953 11.52039063 -11.87003906 10.79078125 -11.12695312 10.0390625 C-7.56707131 6.46292552 -4.04793527 3.03395543 0 0 Z " fill="#1E1E1E" transform="translate(169,123)"/>
<path d="M0 0 C8.25 0 16.5 0 25 0 C25 0.66 25 1.32 25 2 C22.69 2.33 20.38 2.66 18 3 C18 2.34 18 1.68 18 1 C12.06 1 6.12 1 0 1 C0 0.67 0 0.34 0 0 Z " fill="#323232" transform="translate(254,99)"/>
<path d="M0 0 C0.66 0.33 1.32 0.66 2 1 C-2.95 5.95 -7.9 10.9 -13 16 C-13 12.06830895 -11.60580385 10.83572772 -9 8 C-8.34 8 -7.68 8 -7 8 C-6.67 7.01 -6.34 6.02 -6 5 C-4.12382302 3.15500602 -2.07262391 1.6316401 0 0 Z " fill="#181818" transform="translate(850,261)"/>
<path d="M0 0 C0.66 0.33 1.32 0.66 2 1 C-2.29 5.29 -6.58 9.58 -11 14 C-11 10.09538875 -9.66236719 9.66236719 -7 7 C-7 6.01 -7 5.02 -7 4 C-5.824375 3.566875 -5.824375 3.566875 -4.625 3.125 C-1.90328368 2.15087746 -1.90328368 2.15087746 0 0 Z " fill="#1A1A1A" transform="translate(358,40)"/>
<path d="M0 0 C0.99 0 1.98 0 3 0 C2.34 2.64 1.68 5.28 1 8 C0.34 7.34 -0.32 6.68 -1 6 C-3.31 7.98 -5.62 9.96 -8 12 C-6.51430289 9.02860578 -5.52459395 7.25491012 -3.4375 4.875 C-1.03993582 2.27761964 -1.03993582 2.27761964 0 0 Z " fill="#222222" transform="translate(269,108)"/>
<path d="M0 0 C0.66 0.66 1.32 1.32 2 2 C-1.3 5.63 -4.6 9.26 -8 13 C-8.66 12.67 -9.32 12.34 -10 12 C-9.36191406 11.30132812 -8.72382812 10.60265625 -8.06640625 9.8828125 C-7.24011719 8.97273438 -6.41382813 8.06265625 -5.5625 7.125 C-4.73878906 6.22007812 -3.91507813 5.31515625 -3.06640625 4.3828125 C-0.99092058 2.18862073 -0.99092058 2.18862073 0 0 Z " fill="#161616" transform="translate(811,252)"/>
<path d="M0 0 C0.66 0.66 1.32 1.32 2 2 C-0.31 4.64 -2.62 7.28 -5 10 C-5.66 9.67 -6.32 9.34 -7 9 C-4.69 6.03 -2.38 3.06 0 0 Z " fill="#1C1C1C" transform="translate(401,290)"/>
<path d="M0 0 C-0.8125 1.9375 -0.8125 1.9375 -2 4 C-2.99 4.33 -3.98 4.66 -5 5 C-5.33 3.35 -5.66 1.7 -6 0 C-3 -1 -3 -1 0 0 Z " fill="#1D1D1D" transform="translate(483,352)"/>
<path d="M0 0 C0.66 0.66 1.32 1.32 2 2 C-0.31 4.31 -2.62 6.62 -5 9 C-5 4.61031544 -2.87194899 3.23094261 0 0 Z " fill="#1B1B1B" transform="translate(467,206)"/>
<path d="M0 0 C1.98 0.99 1.98 0.99 4 2 C2.68 2.99 1.36 3.98 0 5 C0 3.35 0 1.7 0 0 Z " fill="#181818" transform="translate(264,108)"/>
<path d="M0 0 C0.33 0.99 0.66 1.98 1 3 C0.34 2.67 -0.32 2.34 -1 2 C-0.67 1.34 -0.34 0.68 0 0 Z " fill="#1F1F1F" transform="translate(294,142)"/>
<path d="M0 0 C0.33 0.66 0.66 1.32 1 2 C0.34 1.67 -0.32 1.34 -1 1 C-0.67 0.67 -0.34 0.34 0 0 Z " fill="#2A2A2A" transform="translate(514,320)"/>
<path d="" fill="#000000" transform="translate(0,0)"/>
<path d="M0 0 C3 1 3 1 3 1 Z " fill="#545454" transform="translate(673,301)"/>
<path d="M0 0 C0.66 0.66 1.32 1.32 2 2 C1.34 2 0.68 2 0 2 C0 1.34 0 0.68 0 0 Z " fill="#2A2A2A" transform="translate(212,284)"/>
<path d="M0 0 C0.99 0.495 0.99 0.495 2 1 C1.01 1.495 1.01 1.495 0 2 C0 1.34 0 0.68 0 0 Z " fill="#000000" transform="translate(219,268)"/>
<path d="M0 0 C0.99 0.495 0.99 0.495 2 1 C1.01 1.495 1.01 1.495 0 2 C0 1.34 0 0.68 0 0 Z " fill="#000000" transform="translate(232,247)"/>
<path d="M0 0 C0.99 0.495 0.99 0.495 2 1 C1.01 1.495 1.01 1.495 0 2 C0 1.34 0 0.68 0 0 Z " fill="#2A2A2A" transform="translate(440,237)"/>
<path d="" fill="#545454" transform="translate(0,0)"/>
<path d="" fill="#2A2A2A" transform="translate(0,0)"/>
<path d="" fill="#3F3F3F" transform="translate(0,0)"/>
<path d="M0 0 C2 1 2 1 2 1 Z " fill="#3F3F3F" transform="translate(345,351)"/>
<path d="" fill="#000000" transform="translate(0,0)"/>
<path d="M0 0 C2 1 2 1 2 1 Z " fill="#000000" transform="translate(425,328)"/>
<path d="M0 0 C2 1 2 1 2 1 Z " fill="#3F3F3F" transform="translate(813,323)"/>
<path d="" fill="#000000" transform="translate(0,0)"/>
<path d="" fill="#3F3F3F" transform="translate(0,0)"/>
<path d="" fill="#3F3F3F" transform="translate(0,0)"/>
<path d="M0 0 C2 1 2 1 2 1 Z " fill="#3F3F3F" transform="translate(675,304)"/>
<path d="" fill="#000000" transform="translate(0,0)"/>
<path d="M0 0 C2 1 2 1 2 1 Z " fill="#000000" transform="translate(352,247)"/>
<path d="" fill="#000000" transform="translate(0,0)"/>
<path d="M0 0 C2 1 2 1 2 1 Z " fill="#000000" transform="translate(817,239)"/>
<path d="" fill="#000000" transform="translate(0,0)"/>
<path d="M0 0 C2 1 2 1 2 1 Z " fill="#000000" transform="translate(253,207)"/>
<path d="" fill="#7F7F7F" transform="translate(0,0)"/>
<path d="" fill="#7F7F7F" transform="translate(0,0)"/>
<path d="M0 0 C2 1 2 1 2 1 Z " fill="#000000" transform="translate(394,185)"/>
<path d="" fill="#000000" transform="translate(0,0)"/>
<path d="" fill="#191919" transform="translate(0,0)"/>
<path d="" fill="#000000" transform="translate(0,0)"/>
<path d="M0 0 C2 1 2 1 2 1 Z " fill="#7F7F7F" transform="translate(290,148)"/>
<path d="" fill="#000000" transform="translate(0,0)"/>
<path d="" fill="#000000" transform="translate(0,0)"/>
<path d="" fill="#000000" transform="translate(0,0)"/>
<path d="" fill="#000000" transform="translate(0,0)"/>
<path d="" fill="#000000" transform="translate(0,0)"/>
<path d="" fill="#7F7F7F" transform="translate(0,0)"/>
<path d="" fill="#7F7F7F" transform="translate(0,0)"/>
<path d="" fill="#000000" transform="translate(0,0)"/>
<path d="" fill="#7F7F7F" transform="translate(0,0)"/>
<path d="" fill="#000000" transform="translate(0,0)"/>
<path d="" fill="#000000" transform="translate(0,0)"/>
<path d="" fill="#000000" transform="translate(0,0)"/>
<path d="" fill="#000000" transform="translate(0,0)"/>
<path d="" fill="#000000" transform="translate(0,0)"/>
<path d="" fill="#7F7F7F" transform="translate(0,0)"/>
<path d="" fill="#000000" transform="translate(0,0)"/>
<path d="" fill="#000000" transform="translate(0,0)"/>
<path d="" fill="#000000" transform="translate(0,0)"/>
<path d="" fill="#000000" transform="translate(0,0)"/>
<path d="" fill="#000000" transform="translate(0,0)"/>
<path d="" fill="#000000" transform="translate(0,0)"/>
<path d="" fill="#3F3F3F" transform="translate(0,0)"/>
<path d="" fill="#000000" transform="translate(0,0)"/>
<path d="" fill="#000000" transform="translate(0,0)"/>
<path d="" fill="#000000" transform="translate(0,0)"/>
<path d="" fill="#000000" transform="translate(0,0)"/>
<path d="" fill="#000000" transform="translate(0,0)"/>
<path d="" fill="#7F7F7F" transform="translate(0,0)"/>
<path d="" fill="#000000" transform="translate(0,0)"/>
<path d="" fill="#000000" transform="translate(0,0)"/>
<path d="" fill="#000000" transform="translate(0,0)"/>
<path d="" fill="#7F7F7F" transform="translate(0,0)"/>
<path d="" fill="#000000" transform="translate(0,0)"/>
<path d="" fill="#7F7F7F" transform="translate(0,0)"/>
<path d="" fill="#000000" transform="translate(0,0)"/>
<path d="" fill="#000000" transform="translate(0,0)"/>
<path d="" fill="#000000" transform="translate(0,0)"/>
<path d="" fill="#000000" transform="translate(0,0)"/>
<path d="" fill="#000000" transform="translate(0,0)"/>
<path d="" fill="#000000" transform="translate(0,0)"/>
<path d="" fill="#7F7F7F" transform="translate(0,0)"/>
<path d="" fill="#000000" transform="translate(0,0)"/>
<path d="" fill="#7F7F7F" transform="translate(0,0)"/>
<path d="" fill="#000000" transform="translate(0,0)"/>
<path d="" fill="#000000" transform="translate(0,0)"/>
<path d="" fill="#000000" transform="translate(0,0)"/>
<path d="" fill="#000000" transform="translate(0,0)"/>
<path d="" fill="#000000" transform="translate(0,0)"/>
<path d="" fill="#7F7F7F" transform="translate(0,0)"/>
<path d="" fill="#7F7F7F" transform="translate(0,0)"/>
<path d="" fill="#000000" transform="translate(0,0)"/>
<path d="" fill="#000000" transform="translate(0,0)"/>
<path d="" fill="#000000" transform="translate(0,0)"/>
<path d="" fill="#000000" transform="translate(0,0)"/>
<path d="" fill="#000000" transform="translate(0,0)"/>
<path d="" fill="#000000" transform="translate(0,0)"/>
<path d="" fill="#000000" transform="translate(0,0)"/>
<path d="" fill="#000000" transform="translate(0,0)"/>
<path d="" fill="#7F7F7F" transform="translate(0,0)"/>
<path d="" fill="#000000" transform="translate(0,0)"/>
<path d="" fill="#000000" transform="translate(0,0)"/>
<path d="" fill="#000000" transform="translate(0,0)"/>
<path d="" fill="#000000" transform="translate(0,0)"/>
<path d="" fill="#7F7F7F" transform="translate(0,0)"/>
<path d="" fill="#000000" transform="translate(0,0)"/>
<path d="" fill="#000000" transform="translate(0,0)"/>
<path d="" fill="#000000" transform="translate(0,0)"/>
<path d="" fill="#000000" transform="translate(0,0)"/>
<path d="" fill="#000000" transform="translate(0,0)"/>
<path d="" fill="#7F7F7F" transform="translate(0,0)"/>
<path d="" fill="#7F7F7F" transform="translate(0,0)"/>
<path d="" fill="#000000" transform="translate(0,0)"/>
<path d="" fill="#7F7F7F" transform="translate(0,0)"/>
<path d="" fill="#7F7F7F" transform="translate(0,0)"/>
<path d="" fill="#7F7F7F" transform="translate(0,0)"/>
<path d="" fill="#000000" transform="translate(0,0)"/>
<path d="" fill="#000000" transform="translate(0,0)"/>
<path d="" fill="#000000" transform="translate(0,0)"/>
<path d="" fill="#000000" transform="translate(0,0)"/>
<path d="" fill="#7F7F7F" transform="translate(0,0)"/>
<path d="" fill="#000000" transform="translate(0,0)"/>
<path d="" fill="#000000" transform="translate(0,0)"/>
<path d="" fill="#000000" transform="translate(0,0)"/>
<path d="" fill="#000000" transform="translate(0,0)"/>
<path d="" fill="#000000" transform="translate(0,0)"/>
<path d="" fill="#000000" transform="translate(0,0)"/>
<path d="" fill="#000000" transform="translate(0,0)"/>
<path d="" fill="#000000" transform="translate(0,0)"/>
<path d="" fill="#000000" transform="translate(0,0)"/>
<path d="" fill="#000000" transform="translate(0,0)"/>
<path d="" fill="#7F7F7F" transform="translate(0,0)"/>
<path d="" fill="#7F7F7F" transform="translate(0,0)"/>
<path d="" fill="#000000" transform="translate(0,0)"/>
<path d="" fill="#000000" transform="translate(0,0)"/>
<path d="" fill="#000000" transform="translate(0,0)"/>
<path d="" fill="#000000" transform="translate(0,0)"/>
<path d="" fill="#000000" transform="translate(0,0)"/>
<path d="" fill="#000000" transform="translate(0,0)"/>
<path d="" fill="#7F7F7F" transform="translate(0,0)"/>
<path d="" fill="#000000" transform="translate(0,0)"/>
<path d="" fill="#000000" transform="translate(0,0)"/>
<path d="" fill="#7F7F7F" transform="translate(0,0)"/>
<path d="" fill="#000000" transform="translate(0,0)"/>
<path d="" fill="#000000" transform="translate(0,0)"/>
<path d="" fill="#000000" transform="translate(0,0)"/>
<path d="" fill="#000000" transform="translate(0,0)"/>
<path d="" fill="#000000" transform="translate(0,0)"/>
<path d="" fill="#7F7F7F" transform="translate(0,0)"/>
<path d="" fill="#000000" transform="translate(0,0)"/>
<path d="" fill="#000000" transform="translate(0,0)"/>
<path d="" fill="#000000" transform="translate(0,0)"/>
<path d="" fill="#000000" transform="translate(0,0)"/>
<path d="" fill="#000000" transform="translate(0,0)"/>
<path d="" fill="#000000" transform="translate(0,0)"/>
<path d="" fill="#000000" transform="translate(0,0)"/>
<path d="" fill="#7F7F7F" transform="translate(0,0)"/>
<path d="" fill="#000000" transform="translate(0,0)"/>
<path d="" fill="#000000" transform="translate(0,0)"/>
<path d="" fill="#000000" transform="translate(0,0)"/>
<path d="" fill="#000000" transform="translate(0,0)"/>
<path d="" fill="#7F7F7F" transform="translate(0,0)"/>
<path d="" fill="#000000" transform="translate(0,0)"/>
<path d="" fill="#000000" transform="translate(0,0)"/>
<path d="" fill="#000000" transform="translate(0,0)"/>
<path d="" fill="#000000" transform="translate(0,0)"/>
<path d="" fill="#000000" transform="translate(0,0)"/>
<path d="" fill="#000000" transform="translate(0,0)"/>
<path d="" fill="#000000" transform="translate(0,0)"/>
<path d="" fill="#000000" transform="translate(0,0)"/>
<path d="" fill="#000000" transform="translate(0,0)"/>
<path d="" fill="#000000" transform="translate(0,0)"/>
<path d="" fill="#000000" transform="translate(0,0)"/>
<path d="" fill="#7F7F7F" transform="translate(0,0)"/>
<path d="" fill="#000000" transform="translate(0,0)"/>
<path d="" fill="#000000" transform="translate(0,0)"/>
<path d="" fill="#000000" transform="translate(0,0)"/>
<path d="" fill="#000000" transform="translate(0,0)"/>
<path d="" fill="#000000" transform="translate(0,0)"/>
<path d="" fill="#000000" transform="translate(0,0)"/>
<path d="" fill="#7F7F7F" transform="translate(0,0)"/>
<path d="" fill="#000000" transform="translate(0,0)"/>
<path d="" fill="#7F7F7F" transform="translate(0,0)"/>
<path d="" fill="#7F7F7F" transform="translate(0,0)"/>
<path d="" fill="#000000" transform="translate(0,0)"/>
<path d="" fill="#000000" transform="translate(0,0)"/>
<path d="" fill="#7F7F7F" transform="translate(0,0)"/>
<path d="" fill="#000000" transform="translate(0,0)"/>
<path d="" fill="#000000" transform="translate(0,0)"/>
<path d="" fill="#7F7F7F" transform="translate(0,0)"/>
<path d="" fill="#000000" transform="translate(0,0)"/>
<path d="" fill="#7F7F7F" transform="translate(0,0)"/>
<path d="" fill="#7F7F7F" transform="translate(0,0)"/>
<path d="" fill="#000000" transform="translate(0,0)"/>
<path d="" fill="#000000" transform="translate(0,0)"/>
<path d="" fill="#000000" transform="translate(0,0)"/>
<path d="" fill="#000000" transform="translate(0,0)"/>
<path d="" fill="#000000" transform="translate(0,0)"/>
<path d="" fill="#7F7F7F" transform="translate(0,0)"/>
<path d="" fill="#000000" transform="translate(0,0)"/>
<path d="" fill="#000000" transform="translate(0,0)"/>
<path d="" fill="#000000" transform="translate(0,0)"/>
<path d="" fill="#000000" transform="translate(0,0)"/>
<path d="" fill="#000000" transform="translate(0,0)"/>
<path d="" fill="#000000" transform="translate(0,0)"/>
<path d="" fill="#7F7F7F" transform="translate(0,0)"/>
<path d="" fill="#000000" transform="translate(0,0)"/>
<path d="" fill="#7F7F7F" transform="translate(0,0)"/>
<path d="" fill="#000000" transform="translate(0,0)"/>
<path d="" fill="#000000" transform="translate(0,0)"/>
<path d="" fill="#7F7F7F" transform="translate(0,0)"/>
<path d="" fill="#000000" transform="translate(0,0)"/>
<path d="" fill="#000000" transform="translate(0,0)"/>
<path d="" fill="#7F7F7F" transform="translate(0,0)"/>
<path d="" fill="#000000" transform="translate(0,0)"/>
<path d="" fill="#000000" transform="translate(0,0)"/>
<path d="" fill="#000000" transform="translate(0,0)"/>
<path d="" fill="#000000" transform="translate(0,0)"/>
<path d="" fill="#000000" transform="translate(0,0)"/>
<path d="" fill="#000000" transform="translate(0,0)"/>
<path d="" fill="#000000" transform="translate(0,0)"/>
<path d="" fill="#000000" transform="translate(0,0)"/>
<path d="" fill="#7F7F7F" transform="translate(0,0)"/>
<path d="" fill="#000000" transform="translate(0,0)"/>
<path d="" fill="#000000" transform="translate(0,0)"/>
<path d="" fill="#000000" transform="translate(0,0)"/>
<path d="" fill="#000000" transform="translate(0,0)"/>
<path d="" fill="#7F7F7F" transform="translate(0,0)"/>
<path d="" fill="#000000" transform="translate(0,0)"/>
<path d="" fill="#000000" transform="translate(0,0)"/>
<path d="" fill="#000000" transform="translate(0,0)"/>
<path d="" fill="#000000" transform="translate(0,0)"/>
<path d="" fill="#7F7F7F" transform="translate(0,0)"/>
<path d="" fill="#000000" transform="translate(0,0)"/>
<path d="" fill="#000000" transform="translate(0,0)"/>
<path d="" fill="#000000" transform="translate(0,0)"/>
<path d="" fill="#000000" transform="translate(0,0)"/>
<path d="" fill="#000000" transform="translate(0,0)"/>
<path d="" fill="#000000" transform="translate(0,0)"/>
<path d="" fill="#000000" transform="translate(0,0)"/>
<path d="" fill="#7F7F7F" transform="translate(0,0)"/>
<path d="" fill="#000000" transform="translate(0,0)"/>
<path d="" fill="#000000" transform="translate(0,0)"/>
<path d="" fill="#000000" transform="translate(0,0)"/>
<path d="" fill="#000000" transform="translate(0,0)"/>
<path d="" fill="#000000" transform="translate(0,0)"/>
<path d="" fill="#000000" transform="translate(0,0)"/>
<path d="" fill="#7F7F7F" transform="translate(0,0)"/>
<path d="" fill="#000000" transform="translate(0,0)"/>
<path d="" fill="#000000" transform="translate(0,0)"/>
<path d="" fill="#000000" transform="translate(0,0)"/>
<path d="" fill="#7F7F7F" transform="translate(0,0)"/>
<path d="" fill="#000000" transform="translate(0,0)"/>
<path d="" fill="#000000" transform="translate(0,0)"/>
<path d="" fill="#000000" transform="translate(0,0)"/>
<path d="" fill="#000000" transform="translate(0,0)"/>
<path d="" fill="#000000" transform="translate(0,0)"/>
<path d="" fill="#000000" transform="translate(0,0)"/>
<path d="" fill="#000000" transform="translate(0,0)"/>
<path d="" fill="#000000" transform="translate(0,0)"/>
<path d="" fill="#000000" transform="translate(0,0)"/>
<path d="" fill="#000000" transform="translate(0,0)"/>
<path d="" fill="#000000" transform="translate(0,0)"/>
<path d="" fill="#000000" transform="translate(0,0)"/>
<path d="" fill="#7F7F7F" transform="translate(0,0)"/>
<path d="" fill="#7F7F7F" transform="translate(0,0)"/>
<path d="" fill="#000000" transform="translate(0,0)"/>
<path d="" fill="#000000" transform="translate(0,0)"/>
<path d="" fill="#000000" transform="translate(0,0)"/>
<path d="" fill="#000000" transform="translate(0,0)"/>
<path d="" fill="#7F7F7F" transform="translate(0,0)"/>
<path d="" fill="#000000" transform="translate(0,0)"/>
<path d="" fill="#333333" transform="translate(0,0)"/>
<path d="" fill="#000000" transform="translate(0,0)"/>
<path d="" fill="#000000" transform="translate(0,0)"/>
<path d="" fill="#000000" transform="translate(0,0)"/>
<path d="" fill="#000000" transform="translate(0,0)"/>
<path d="" fill="#000000" transform="translate(0,0)"/>
<path d="" fill="#000000" transform="translate(0,0)"/>
<path d="" fill="#000000" transform="translate(0,0)"/>
<path d="" fill="#000000" transform="translate(0,0)"/>
<path d="" fill="#7F7F7F" transform="translate(0,0)"/>
<path d="" fill="#000000" transform="translate(0,0)"/>
<path d="" fill="#000000" transform="translate(0,0)"/>
<path d="" fill="#000000" transform="translate(0,0)"/>
<path d="" fill="#000000" transform="translate(0,0)"/>
<path d="" fill="#7F7F7F" transform="translate(0,0)"/>
<path d="" fill="#7F7F7F" transform="translate(0,0)"/>
<path d="" fill="#000000" transform="translate(0,0)"/>
<path d="" fill="#000000" transform="translate(0,0)"/>
<path d="" fill="#000000" transform="translate(0,0)"/>
<path d="" fill="#000000" transform="translate(0,0)"/>
<path d="" fill="#000000" transform="translate(0,0)"/>
<path d="" fill="#000000" transform="translate(0,0)"/>
<path d="" fill="#7F7F7F" transform="translate(0,0)"/>
<path d="" fill="#000000" transform="translate(0,0)"/>
<path d="" fill="#7F7F7F" transform="translate(0,0)"/>
<path d="" fill="#000000" transform="translate(0,0)"/>
<path d="" fill="#000000" transform="translate(0,0)"/>
<path d="" fill="#000000" transform="translate(0,0)"/>
<path d="" fill="#000000" transform="translate(0,0)"/>
<path d="" fill="#000000" transform="translate(0,0)"/>
<path d="" fill="#000000" transform="translate(0,0)"/>
<path d="" fill="#000000" transform="translate(0,0)"/>
<path d="" fill="#7F7F7F" transform="translate(0,0)"/>
<path d="" fill="#000000" transform="translate(0,0)"/>
<path d="" fill="#000000" transform="translate(0,0)"/>
<path d="" fill="#000000" transform="translate(0,0)"/>
<path d="" fill="#000000" transform="translate(0,0)"/>
<path d="" fill="#000000" transform="translate(0,0)"/>
<path d="" fill="#000000" transform="translate(0,0)"/>
<path d="" fill="#000000" transform="translate(0,0)"/>
<path d="" fill="#7F7F7F" transform="translate(0,0)"/>
<path d="" fill="#7F7F7F" transform="translate(0,0)"/>
<path d="" fill="#7F7F7F" transform="translate(0,0)"/>
</svg>
